<?xml version="1.0" encoding="UTF-8" standalone="no"?><!-- Generator: Gravit.io --><svg xmlns="http://www.w3.org/2000/svg" xmlns:xlink="http://www.w3.org/1999/xlink" style="isolation:isolate" viewBox="0 0 128 128" width="128pt" height="128pt"><defs><clipPath id="_clipPath_Dd5pzwhW5puqf8bgpQ60Ydv6EfcvtxRE"><rect width="128" height="128"/></clipPath></defs><g clip-path="url(#_clipPath_Dd5pzwhW5puqf8bgpQ60Ydv6EfcvtxRE)"><rect width="128" height="128" style="fill:rgb(255,0,238)" fill-opacity="0.01"/><g><g><defs><filter id="uCYNYPr4zfjybraUSxFssExJ5hn8pCE1" x="-200%" y="-200%" width="400%" height="400%" filterUnits="objectBoundingBox" color-interpolation-filters="sRGB"><feOffset xmlns="http://www.w3.org/2000/svg" in="SourceGraphic" dx="1" dy="1"/><feGaussianBlur xmlns="http://www.w3.org/2000/svg" stdDeviation="0.42936090628390283" result="pf_100_offsetBlur"/><feComposite xmlns="http://www.w3.org/2000/svg" in="SourceGraphic" in2="pf_100_offsetBlur" result="pf_100_inverse" operator="out"/><feFlood xmlns="http://www.w3.org/2000/svg" flood-color="#000000" flood-opacity="0.48" result="pf_100_color"/><feComposite xmlns="http://www.w3.org/2000/svg" in="pf_100_color" in2="pf_100_inverse" operator="in" result="pf_100_shadow"/><feComposite xmlns="http://www.w3.org/2000/svg" in="pf_100_shadow" in2="SourceGraphic" operator="over"/></filter></defs><g filter="url(#uCYNYPr4zfjybraUSxFssExJ5hn8pCE1)"><path d=" M 47.908 93.368 C 53.622 93.368 60.088 90.393 64 85.908 L 64 68.643 C 60.088 64.159 53.622 61.184 47.908 61.184 C 47.293 61.184 46.721 61.295 46.12 61.363 L 46.12 29 L 31.816 29 L 31.816 77.276 C 31.816 86.159 39.025 93.368 47.908 93.368 Z  M 53.272 79.064 C 51.305 79.064 49.696 77.455 49.696 75.488 C 49.696 73.521 51.305 71.912 53.272 71.912 C 55.239 71.912 56.848 73.521 56.848 75.488 C 56.848 77.455 55.239 79.064 53.272 79.064 Z " fill="rgb(255,255,255)" vector-effect="non-scaling-stroke" stroke-width="4" stroke="rgb(0,0,0)" stroke-linejoin="miter" stroke-linecap="butt" stroke-miterlimit="4"/></g></g><g filter="url(#CJ2C0kRV8TsIS5Q1JjKySzyzlpVz99kA)"><defs><filter id="A2AVo9dShvhwycs6t2OuqLGgQvjXfaBk" x="-200%" y="-200%" width="400%" height="400%" filterUnits="objectBoundingBox" color-interpolation-filters="sRGB"><feOffset xmlns="http://www.w3.org/2000/svg" in="SourceGraphic" dx="1" dy="1"/><feGaussianBlur xmlns="http://www.w3.org/2000/svg" stdDeviation="0.42936090628390283" result="pf_100_offsetBlur"/><feComposite xmlns="http://www.w3.org/2000/svg" in="SourceGraphic" in2="pf_100_offsetBlur" result="pf_100_inverse" operator="out"/><feFlood xmlns="http://www.w3.org/2000/svg" flood-color="#000000" flood-opacity="0.48" result="pf_100_color"/><feComposite xmlns="http://www.w3.org/2000/svg" in="pf_100_color" in2="pf_100_inverse" operator="in" result="pf_100_shadow"/><feComposite xmlns="http://www.w3.org/2000/svg" in="pf_100_shadow" in2="SourceGraphic" operator="over"/></filter></defs><g filter="url(#A2AVo9dShvhwycs6t2OuqLGgQvjXfaBk)"><path d=" M 80.092 99 C 85.806 99 92.272 96.025 96.184 91.54 L 96.184 74.276 C 92.272 69.791 85.806 66.816 80.092 66.816 C 79.477 66.816 78.905 66.927 78.304 66.995 L 78.304 34.632 L 64 34.632 L 64 82.908 C 64 91.791 71.209 99 80.092 99 Z  M 85.456 84.696 C 83.489 84.696 81.88 83.087 81.88 81.12 C 81.88 79.153 83.489 77.544 85.456 77.544 C 87.423 77.544 89.032 79.153 89.032 81.12 C 89.032 83.087 87.423 84.696 85.456 84.696 Z " fill="rgb(255,255,255)" vector-effect="non-scaling-stroke" stroke-width="4" stroke="rgb(0,0,0)" stroke-linejoin="miter" stroke-linecap="butt" stroke-miterlimit="4"/></g></g><defs><filter id="CJ2C0kRV8TsIS5Q1JjKySzyzlpVz99kA" x="-200%" y="-200%" width="400%" height="400%" filterUnits="objectBoundingBox" color-interpolation-filters="sRGB"><feOffset xmlns="http://www.w3.org/2000/svg" in="SourceGraphic" dx="1" dy="1"/><feGaussianBlur xmlns="http://www.w3.org/2000/svg" stdDeviation="0.42936090628390283" result="pf_100_offsetBlur"/><feComposite xmlns="http://www.w3.org/2000/svg" in="SourceGraphic" in2="pf_100_offsetBlur" result="pf_100_inverse" operator="out"/><feFlood xmlns="http://www.w3.org/2000/svg" flood-color="#000000" flood-opacity="0.48" result="pf_100_color"/><feComposite xmlns="http://www.w3.org/2000/svg" in="pf_100_color" in2="pf_100_inverse" operator="in" result="pf_100_shadow"/><feComposite xmlns="http://www.w3.org/2000/svg" in="pf_100_shadow" in2="SourceGraphic" operator="over"/></filter></defs></g></g></svg>