<?xml version="1.0" encoding="UTF-8" standalone="no"?><!-- Generator: Gravit.io --><svg xmlns="http://www.w3.org/2000/svg" xmlns:xlink="http://www.w3.org/1999/xlink" style="isolation:isolate" viewBox="0 0 128 128" width="128pt" height="128pt"><defs><clipPath id="_clipPath_zoqH0BEduZ0JhWE7LkL45g6i5o0CVFYh"><rect width="128" height="128"/></clipPath></defs><g clip-path="url(#_clipPath_zoqH0BEduZ0JhWE7LkL45g6i5o0CVFYh)"><rect x="0" y="0" width="128" height="128" transform="matrix(1,0,0,1,0,0)" fill="none"/><rect x="0" y="0" width="128" height="128" transform="matrix(1,0,0,1,0,0)" fill="rgb(255,0,238)" fill-opacity="0.01"/><g><path d=" M 47.908 93.368 C 53.622 93.368 60.088 90.393 64 85.908 L 64 68.644 C 60.088 64.159 53.622 61.184 47.908 61.184 C 47.293 61.184 46.721 61.295 46.12 61.363 L 46.12 29 L 31.816 29 L 31.816 77.276 C 31.816 86.159 39.025 93.368 47.908 93.368 Z  M 53.272 79.064 C 51.305 79.064 49.696 77.455 49.696 75.488 C 49.696 73.521 51.305 71.912 53.272 71.912 C 55.239 71.912 56.848 73.521 56.848 75.488 C 56.848 77.455 55.239 79.064 53.272 79.064 Z " fill="none"/><path d=" M 47.908 93.368 C 53.622 93.368 60.088 90.393 64 85.908 L 64 68.644 C 60.088 64.159 53.622 61.184 47.908 61.184 C 47.293 61.184 46.721 61.295 46.12 61.363 L 46.12 29 L 31.816 29 L 31.816 77.276 C 31.816 86.159 39.025 93.368 47.908 93.368 Z  M 53.272 79.064 C 51.305 79.064 49.696 77.455 49.696 75.488 C 49.696 73.521 51.305 71.912 53.272 71.912 C 55.239 71.912 56.848 73.521 56.848 75.488 C 56.848 77.455 55.239 79.064 53.272 79.064 Z " fill="rgb(255,255,255)"/><g style="isolation: isolate;"><path d=" M 47.908 93.368 C 53.622 93.368 60.088 90.393 64 85.908 L 64 68.644 C 60.088 64.159 53.622 61.184 47.908 61.184 C 47.293 61.184 46.721 61.295 46.12 61.363 L 46.12 29 L 31.816 29 L 31.816 77.276 C 31.816 86.159 39.025 93.368 47.908 93.368 Z  M 53.272 79.064 C 51.305 79.064 49.696 77.455 49.696 75.488 C 49.696 73.521 51.305 71.912 53.272 71.912 C 55.239 71.912 56.848 73.521 56.848 75.488 C 56.848 77.455 55.239 79.064 53.272 79.064 Z " fill="none" vector-effect="non-scaling-stroke" stroke-width="2.5" stroke="rgb(0,0,0)" stroke-opacity="100" stroke-linejoin="miter" stroke-linecap="round" stroke-miterlimit="24"/><mask id="_mask_zzyxmVTaiOrDK5zR9Rpse2kPWYdaQOaH"><path d=" M 47.908 93.368 C 53.622 93.368 60.088 90.393 64 85.908 L 64 68.644 C 60.088 64.159 53.622 61.184 47.908 61.184 C 47.293 61.184 46.721 61.295 46.12 61.363 L 46.12 29 L 31.816 29 L 31.816 77.276 C 31.816 86.159 39.025 93.368 47.908 93.368 Z  M 53.272 79.064 C 51.305 79.064 49.696 77.455 49.696 75.488 C 49.696 73.521 51.305 71.912 53.272 71.912 C 55.239 71.912 56.848 73.521 56.848 75.488 C 56.848 77.455 55.239 79.064 53.272 79.064 Z " fill="white" stroke="none"/></mask><path d=" M 47.908 93.368 C 53.622 93.368 60.088 90.393 64 85.908 L 64 68.644 C 60.088 64.159 53.622 61.184 47.908 61.184 C 47.293 61.184 46.721 61.295 46.12 61.363 L 46.12 29 L 31.816 29 L 31.816 77.276 C 31.816 86.159 39.025 93.368 47.908 93.368 Z  M 53.272 79.064 C 51.305 79.064 49.696 77.455 49.696 75.488 C 49.696 73.521 51.305 71.912 53.272 71.912 C 55.239 71.912 56.848 73.521 56.848 75.488 C 56.848 77.455 55.239 79.064 53.272 79.064 Z " fill="none" mask="url(#_mask_zzyxmVTaiOrDK5zR9Rpse2kPWYdaQOaH)" vector-effect="non-scaling-stroke" stroke-width="2" stroke="rgb(42,42,42)" stroke-linejoin="miter" stroke-linecap="round" stroke-miterlimit="24"/></g><path d=" M 80.092 99 C 85.806 99 92.272 96.025 96.184 91.54 L 96.184 74.276 C 92.272 69.791 85.806 66.816 80.092 66.816 C 79.477 66.816 78.905 66.927 78.304 66.995 L 78.304 34.632 L 64 34.632 L 64 82.908 C 64 91.791 71.209 99 80.092 99 Z  M 85.456 84.696 C 83.489 84.696 81.88 83.087 81.88 81.12 C 81.88 79.153 83.489 77.544 85.456 77.544 C 87.423 77.544 89.032 79.153 89.032 81.12 C 89.032 83.087 87.423 84.696 85.456 84.696 Z " fill="none"/><path d=" M 80.092 99 C 85.806 99 92.272 96.025 96.184 91.54 L 96.184 74.276 C 92.272 69.791 85.806 66.816 80.092 66.816 C 79.477 66.816 78.905 66.927 78.304 66.995 L 78.304 34.632 L 64 34.632 L 64 82.908 C 64 91.791 71.209 99 80.092 99 Z  M 85.456 84.696 C 83.489 84.696 81.88 83.087 81.88 81.12 C 81.88 79.153 83.489 77.544 85.456 77.544 C 87.423 77.544 89.032 79.153 89.032 81.12 C 89.032 83.087 87.423 84.696 85.456 84.696 Z " fill="rgb(255,255,255)"/><g style="isolation: isolate;"><path d=" M 80.092 99 C 85.806 99 92.272 96.025 96.184 91.54 L 96.184 74.276 C 92.272 69.791 85.806 66.816 80.092 66.816 C 79.477 66.816 78.905 66.927 78.304 66.995 L 78.304 34.632 L 64 34.632 L 64 82.908 C 64 91.791 71.209 99 80.092 99 Z  M 85.456 84.696 C 83.489 84.696 81.88 83.087 81.88 81.12 C 81.88 79.153 83.489 77.544 85.456 77.544 C 87.423 77.544 89.032 79.153 89.032 81.12 C 89.032 83.087 87.423 84.696 85.456 84.696 Z " fill="none" vector-effect="non-scaling-stroke" stroke-width="2.5" stroke="rgb(0,0,0)" stroke-opacity="100" stroke-linejoin="miter" stroke-linecap="round" stroke-miterlimit="24"/><mask id="_mask_ux6TOhi8JWqi03uJwmNqcvrDiPPEhWRh"><path d=" M 80.092 99 C 85.806 99 92.272 96.025 96.184 91.54 L 96.184 74.276 C 92.272 69.791 85.806 66.816 80.092 66.816 C 79.477 66.816 78.905 66.927 78.304 66.995 L 78.304 34.632 L 64 34.632 L 64 82.908 C 64 91.791 71.209 99 80.092 99 Z  M 85.456 84.696 C 83.489 84.696 81.88 83.087 81.88 81.12 C 81.88 79.153 83.489 77.544 85.456 77.544 C 87.423 77.544 89.032 79.153 89.032 81.12 C 89.032 83.087 87.423 84.696 85.456 84.696 Z " fill="white" stroke="none"/></mask><path d=" M 80.092 99 C 85.806 99 92.272 96.025 96.184 91.54 L 96.184 74.276 C 92.272 69.791 85.806 66.816 80.092 66.816 C 79.477 66.816 78.905 66.927 78.304 66.995 L 78.304 34.632 L 64 34.632 L 64 82.908 C 64 91.791 71.209 99 80.092 99 Z  M 85.456 84.696 C 83.489 84.696 81.88 83.087 81.88 81.12 C 81.88 79.153 83.489 77.544 85.456 77.544 C 87.423 77.544 89.032 79.153 89.032 81.12 C 89.032 83.087 87.423 84.696 85.456 84.696 Z " fill="none" mask="url(#_mask_ux6TOhi8JWqi03uJwmNqcvrDiPPEhWRh)" vector-effect="non-scaling-stroke" stroke-width="2" stroke="rgb(42,42,42)" stroke-linejoin="miter" stroke-linecap="round" stroke-miterlimit="24"/></g></g></g></svg>