<?xml version="1.0" standalone="no"?>
<!DOCTYPE svg PUBLIC "-//W3C//DTD SVG 20010904//EN"
 "http://www.w3.org/TR/2001/REC-SVG-20010904/DTD/svg10.dtd">
<svg version="1.0" xmlns="http://www.w3.org/2000/svg"
 width="260.000000pt" height="260.000000pt" viewBox="0 0 260.000000 260.000000"
 preserveAspectRatio="xMidYMid meet">
<metadata>
Created by potrace 1.14, written by Peter Selinger 2001-2017
</metadata>
<g transform="translate(0.000000,260.000000) scale(0.100000,-0.100000)"
fill="#000000" stroke="none">
<path d="M362 1578 c4 -716 4 -734 25 -788 36 -97 62 -139 124 -201 110 -110
269 -163 419 -140 112 18 224 65 311 133 l37 28 38 -67 c152 -261 461 -328
745 -162 37 21 92 62 123 90 l56 51 0 252 c0 286 5 268 -89 340 -109 84 -230
134 -363 151 l-48 6 0 445 0 444 -245 0 -245 0 0 -441 0 -440 -33 25 c-74 56
-242 116 -326 116 l-41 0 0 445 0 445 -246 0 -245 0 3 -732z m398 193 l0 -449
73 5 c120 9 274 -45 375 -132 l42 -37 0 -226 -1 -227 -53 -42 c-154 -123 -359
-159 -512 -89 -58 27 -152 114 -180 167 -43 85 -44 91 -44 802 l0 677 150 0
150 0 0 -449z m890 -155 l0 -453 46 8 c109 21 313 -47 407 -136 l37 -35 0
-224 0 -224 -42 -37 c-54 -46 -160 -101 -235 -120 -198 -52 -391 36 -477 215
l-31 65 -3 698 -2 697 150 0 150 0 0 -454z"/>
<path d="M940 1108 c-75 -39 -102 -127 -60 -196 54 -88 176 -96 238 -17 54 68
28 176 -52 214 -54 27 -72 26 -126 -1z m109 -106 c14 -27 -9 -66 -40 -70 -56
-7 -78 72 -27 95 26 12 53 2 67 -25z"/>
<path d="M1822 950 c-105 -64 -93 -207 20 -254 40 -17 53 -18 86 -8 50 15 89
54 104 104 10 33 9 46 -8 86 -35 85 -127 118 -202 72z m115 -99 c22 -45 -23
-90 -68 -68 -30 15 -36 52 -13 78 24 27 65 21 81 -10z"/>
</g>
</svg>
