<svg xmlns="http://www.w3.org/2000/svg">
	<symbol id="album">
		<rect x="3" y="3" width="18" height="18" rx="2" ry="2" />
		<polyline points="11 3 11 11 14 8 17 11 17 3" />
	</symbol>
	<symbol id="chevron-left">
		<polyline points="15 18 9 12 15 6" />
	</symbol>
	<symbol id="chevron-right">
		<polyline points="9 18 15 12 9 6" />
	</symbol>
	<symbol id="clock">
		<circle cx="12" cy="12" r="10" />
		<polyline points="12 6 12 12 16 14" />
	</symbol>
	<symbol id="download">
		<path d="M21 15v4a2 2 0 0 1-2 2H5a2 2 0 0 1-2-2v-4" />
		<polyline points="7 10 12 15 17 10" />
		<line x1="12" y1="15" x2="12" y2="3" />
	</symbol>
	<symbol id="edit">
		<path d="M11 4H4a2 2 0 0 0-2 2v14a2 2 0 0 0 2 2h14a2 2 0 0 0 2-2v-7" />
		<path d="M18.5 2.5a2.121 2.121 0 0 1 3 3L12 15l-4 1 1-4 9.5-9.5z" />
	</symbol>
	<symbol id="folder">
		<path
			d="M4 20h16a2 2 0 0 0 2-2V8a2 2 0 0 0-2-2h-7.93a2 2 0 0 1-1.66-.9l-.82-1.2A2 2 0 0 0 7.93 3H4a2 2 0 0 0-2 2v13c0 1.1.9 2 2 2Z"
		/>
	</symbol>
	<symbol id="frown">
		<circle cx="12" cy="12" r="10" />
		<path d="M16 16s-1.5-2-4-2-4 2-4 2" />
		<line x1="9" y1="9" x2="9.01" y2="9" />
		<line x1="15" y1="9" x2="15.01" y2="9" />
	</symbol>
	<symbol id="heart">
		<path
			d="M20.42 4.58a5.4 5.4 0 0 0-7.65 0l-.77.78-.77-.78a5.4 5.4 0 0 0-7.65 0C1.46 6.7 1.33 10.28 4 13l8 8 8-8c2.67-2.72 2.54-6.3.42-8.42z"
		/>
	</symbol>
	<symbol id="home">
		<path d="m3 9 9-7 9 7v11a2 2 0 0 1-2 2H5a2 2 0 0 1-2-2z" />
		<polyline points="9 22 9 12 15 12 15 22" />
	</symbol>
	<symbol id="image">
		<rect x="3" y="3" width="18" height="18" rx="2" ry="2" />
		<circle cx="9" cy="9" r="2" />
		<path d="m21 15-3.086-3.086a2 2 0 0 0-2.828 0L6 21" />
	</symbol>
	<symbol id="import">
		<path d="M12 3v12" />
		<path d="m8 11 4 4 4-4" />
		<path d="M8 5H4a2 2 0 0 0-2 2v10a2 2 0 0 0 2 2h16a2 2 0 0 0 2-2V7a2 2 0 0 0-2-2h-4" />
	</symbol>
	<symbol id="list">
		<line x1="8" y1="6" x2="21" y2="6" />
		<line x1="8" y1="12" x2="21" y2="12" />
		<line x1="8" y1="18" x2="21" y2="18" />
		<line x1="3" y1="6" x2="3.01" y2="6" />
		<line x1="3" y1="12" x2="3.01" y2="12" />
		<line x1="3" y1="18" x2="3.01" y2="18" />
	</symbol>
	<symbol id="minus">
		<line x1="5" y1="12" x2="19" y2="12" />
	</symbol>
	<symbol id="music">
		<path d="M9 18V5l12-2v13" />
		<circle cx="6" cy="18" r="3" />
		<circle cx="18" cy="16" r="3" />
	</symbol>
	<symbol id="pause">
		<rect x="6" y="4" width="4" height="16" />
		<rect x="14" y="4" width="4" height="16" />
	</symbol>
	<symbol id="play">
		<polygon points="5 3 19 12 5 21 5 3" />
	</symbol>
	<symbol id="radio">
		<circle cx="12" cy="12" r="2" />
		<path d="M4.93 19.07a10 10 0 0 1 0-14.14" />
		<path d="M7.76 16.24a6 6 0 0 1-1.3-1.95 6 6 0 0 1 0-4.59 6 6 0 0 1 1.3-1.95" />
		<path d="M16.24 7.76a6 6 0 0 1 1.3 2 6 6 0 0 1 0 4.59 6 6 0 0 1-1.3 1.95" />
		<path d="M19.07 4.93a10 10 0 0 1 0 14.14" />
	</symbol>
	<symbol id="search">
		<circle cx="11" cy="11" r="8" />
		<line x1="21" y1="21" x2="16.65" y2="16.65" />
	</symbol>
	<symbol id="send">
		<line x1="22" y1="2" x2="11" y2="13" />
		<polygon points="22 2 15 22 11 13 2 9 22 2" />
	</symbol>
	<symbol id="settings">
		<path
			d="M12.22 2h-.44a2 2 0 0 0-2 2v.18a2 2 0 0 1-1 1.73l-.43.25a2 2 0 0 1-2 0l-.15-.08a2 2 0 0 0-2.73.73l-.22.38a2 2 0 0 0 .73 2.73l.15.1a2 2 0 0 1 1 1.72v.51a2 2 0 0 1-1 1.74l-.15.09a2 2 0 0 0-.73 2.73l.22.38a2 2 0 0 0 2.73.73l.15-.08a2 2 0 0 1 2 0l.43.25a2 2 0 0 1 1 1.73V20a2 2 0 0 0 2 2h.44a2 2 0 0 0 2-2v-.18a2 2 0 0 1 1-1.73l.43-.25a2 2 0 0 1 2 0l.15.08a2 2 0 0 0 2.73-.73l.22-.39a2 2 0 0 0-.73-2.73l-.15-.08a2 2 0 0 1-1-1.74v-.5a2 2 0 0 1 1-1.74l.15-.09a2 2 0 0 0 .73-2.73l-.22-.38a2 2 0 0 0-2.73-.73l-.15.08a2 2 0 0 1-2 0l-.43-.25a2 2 0 0 1-1-1.73V4a2 2 0 0 0-2-2z"
		/>
		<circle cx="12" cy="12" r="3" />
	</symbol>
	<symbol id="share">
		<path d="M4 12v8a2 2 0 0 0 2 2h12a2 2 0 0 0 2-2v-8" />
		<polyline points="16 6 12 2 8 6" />
		<line x1="12" y1="2" x2="12" y2="15" />
	</symbol>
	<symbol id="shuffle">
		<polyline points="16 3 21 3 21 8" />
		<line x1="4" y1="20" x2="21" y2="3" />
		<polyline points="21 16 21 21 16 21" />
		<line x1="15" y1="15" x2="21" y2="21" />
		<line x1="4" y1="4" x2="9" y2="9" />
	</symbol>
	<symbol id="skip-back">
		<polygon points="19 20 9 12 19 4 19 20" />
		<line x1="5" y1="19" x2="5" y2="5" />
	</symbol>
	<symbol id="skip-forward">
		<polygon points="5 4 15 12 5 20 5 4" />
		<line x1="19" y1="5" x2="19" y2="19" />
	</symbol>
	<symbol id="upload">
		<path d="M21 15v4a2 2 0 0 1-2 2H5a2 2 0 0 1-2-2v-4" />
		<polyline points="17 8 12 3 7 8" />
		<line x1="12" y1="3" x2="12" y2="15" />
	</symbol>
	<symbol id="user">
		<path d="M19 21v-2a4 4 0 0 0-4-4H9a4 4 0 0 0-4 4v2" />
		<circle cx="12" cy="7" r="4" />
	</symbol>
	<symbol id="users">
		<path d="M16 21v-2a4 4 0 0 0-4-4H6a4 4 0 0 0-4 4v2" />
		<circle cx="9" cy="7" r="4" />
		<path d="M22 21v-2a4 4 0 0 0-3-3.87" />
		<path d="M16 3.13a4 4 0 0 1 0 7.75" />
	</symbol>
	<symbol id="dots">
		<circle cx="12" cy="12" r="1" />
		<circle cx="12" cy="5" r="1" />
		<circle cx="12" cy="19" r="1" />
	</symbol>
	<symbol id="queue">
		<g>
			<line stroke="currentColor" id="svg_1" y2="6" x2="21" y1="6" x1="3" />
			<line stroke="currentColor" id="svg_2" y2="12" x2="21" y1="12" x1="3" />
			<line stroke="currentColor" id="svg_3" y2="18" x2="19.57594" y1="18" x1="3" />
			<g stroke-opacity="0.3" stroke="null" stroke-width="0.75" id="svg_11">
				<polygon
					stroke="currentColor"
					fill="currentColor"
					id="svg_10"
					points="14.77114200592041,11.925364971160889 22.75658416748047,17.058862686157227 14.77114200592041,22.19236183166504 14.77114200592041,11.925364971160889 "
				/>
			</g>
		</g>
	</symbol>
	<symbol id="trending">
		<polyline points="23 6 13.5 15.5 8.5 10.5 1 18" />
		<polyline points="17 6 23 6 23 12" />
	</symbol>
	<symbol id="volume">
		<polygon points="11 5 6 9 2 9 2 15 6 15 11 19 11 5" />
		<path d="M15.54 8.46a5 5 0 0 1 0 7.07" />
		<path d="M19.07 4.93a10 10 0 0 1 0 14.14" />
	</symbol>
	<symbol id="x">
		<line x1="18" y1="6" x2="6" y2="18" />
		<line x1="6" y1="6" x2="18" y2="18" />
	</symbol>
	<symbol id="repeat-1">
		<path d="m17 2 4 4-4 4" />
		<path d="M3 11v-1a4 4 0 0 1 4-4h14" />
		<path d="m7 22-4-4 4-4" />
		<path d="M21 13v1a4 4 0 0 1-4 4H3" />
		<path d="M11 10h1v4" />
	</symbol>
	<symbol id="repeat">
		<path d="m17 2 4 4-4 4" />
		<path d="M3 11v-1a4 4 0 0 1 4-4h14" />
		<path d="m7 22-4-4 4-4" />
		<path d="M21 13v1a4 4 0 0 1-4 4H3" />
	</symbol>
	<symbol id="list-video">
		<path d="M12 12H3" />
		<path d="M16 6H3" />
		<path d="M12 18H3" />
		<path d="m16 12 5 3-5 3v-6Z" />
	</symbol>
	<symbol id="list-music">
		<path d="M21 15V6" />
		<path d="M18.5 18a2.5 2.5 0 1 0 0-5 2.5 2.5 0 0 0 0 5Z" />
		<path d="M12 12H3" />
		<path d="M16 6H3" />
		<path d="M12 18H3" />
	</symbol>
	<symbol id="list-plus">
		<path d="M11 12H3" />
		<path d="M16 6H3" />
		<path d="M16 18H3" />
		<path d="M18 9v6" />
		<path d="M21 12h-6" />
	</symbol>
	<symbol id="artist">
		<path d="M19 21v-2a4 4 0 0 0-4-4H9a4 4 0 0 0-4 4v2" />
		<circle cx="12" cy="7" r="4" />
	</symbol>
</svg>
